<mxfile host="app.diagrams.net" modified="2024-03-28T05:57:53.385Z" agent="Mozilla/5.0 (Macintosh; Intel Mac OS X 10_15_7) AppleWebKit/537.36 (KHTML, like Gecko) Chrome/123.0.0.0 Safari/537.36" version="24.0.7" etag="tRswMCkFpTQROrINFfup" type="github">
  <diagram name="第 1 页" id="3JIkpw_Emx1wUANGg2bD">
    <mxGraphModel>
      <root>
        <mxCell id="0" />
        <mxCell id="1" parent="0" />
      </root>
    </mxGraphModel>
  </diagram>
</mxfile>
